Coordinates
version=1
nRows=16
nColumns=36
inDegrees=yes

Units are S.I. units (second, meters, Newtons, ...)
If the header above contains a line with 'inDegrees', this indicates whether rotational values are in degrees (yes) or radians (no).

endheader
time	pelvis_tilt	pelvis_list	pelvis_rotation	pelvis_tx	pelvis_ty	pelvis_tz	hip_flexion_r	hip_adduction_r	hip_rotation_r	knee_angle_r	knee_angle_r_beta	ankle_angle_r	subtalar_angle_r	mtp_angle_r	hip_flexion_l	hip_adduction_l	hip_rotation_l	knee_angle_l	knee_angle_l_beta	ankle_angle_l	subtalar_angle_l	mtp_angle_l	lumbar_extension	lumbar_bending	lumbar_rotation	arm_flex_r	arm_add_r	arm_rot_r	elbow_flex_r	pro_sup_r	arm_flex_l	arm_add_l	arm_rot_l	elbow_flex_l	pro_sup_l
      2.90000000	    -22.85952158	      1.00482879	     -2.01987328	      0.65931801	      0.64408623	     -0.00487818	     88.75410410	     -6.80363004	      8.79698323	    102.64620303	      1.79151421	     33.01516130	    -13.11826383	     -7.49999987	     90.14827416	    -10.68241064	      7.76106514	    101.06790889	      1.76396778	     30.44796750	    -11.20115611	     -7.49999987	    -41.89784778	     -7.64445086	      3.03152279	     42.80801981	    -18.52554042	     -3.55978325	     76.83381344	     94.19161962	     49.31262120	    -18.26740384	      5.71686759	     68.19390880	     92.10760561
      2.91666670	    -24.71167012	      1.35605797	     -2.45759703	      0.67630423	      0.63621019	     -0.01234778	     89.58972955	     -6.49308082	      9.34980854	    102.88925132	      1.79575620	     33.75392886	    -13.59911459	     -7.49999987	     90.99572438	    -10.92012803	      7.34335722	    101.64271252	      1.77399999	     31.77755859	    -10.47442649	     -7.49999987	    -42.93902643	     -7.93664752	      2.85638479	     42.14641454	    -19.08583857	     -4.34713599	     73.16006620	     94.06099870	     47.94011136	    -16.91380876	      2.93722133	     64.52058467	     92.01554968
      2.93333330	    -26.43403006	      1.95638127	     -2.53568375	      0.68124522	      0.61828427	     -0.01421797	     91.62714597	     -6.18910152	     10.49302803	    104.31328683	      1.82061031	     34.13792220	    -14.57472882	     -7.49999987	     92.62007329	    -10.81519418	      6.82283240	    103.17396194	      1.80072534	     33.46925106	    -10.13041466	     -7.49999987	    -42.98198211	     -8.38205642	      1.67451627	     41.40295833	    -19.48678438	     -4.18662102	     69.80410641	     92.33281929	     45.15626275	    -17.23325309	      0.03369382	     64.34208098	     91.14229432
      2.95000000	    -28.49244037	      2.31958307	     -2.04519733	      0.66618289	      0.61907132	     -0.01392719	     94.00706129	     -5.78459545	     11.21499565	    104.49930414	      1.82385692	     33.86810657	    -15.94650320	     -7.49999987	     94.87295646	    -10.25267551	      6.25662137	    103.69563481	      1.80983025	     34.17311858	    -10.61503867	     -7.49999987	    -43.00396414	     -8.31319811	      0.95276120	     42.02207044	    -20.37660263	     -4.75628251	     67.28729346	     91.99383292	     45.87476275	    -18.02157526	     -0.22147017	     62.11884301	     90.94354036
      2.96666670	    -30.22014132	      2.46269575	     -1.71533245	      0.66648955	      0.61325714	     -0.01365603	     96.12851220	     -5.36397264	     11.62390751	    104.50210621	      1.82390583	     33.95070366	    -16.57756879	     -7.49999987	     96.88682649	     -9.92962111	      6.00910811	    103.96111476	      1.81446375	     34.40903262	    -10.93322330	     -7.49999987	    -42.92095982	     -7.99196359	      0.36804867	     41.92550365	    -21.14837254	     -5.06104692	     65.84740923	     91.14134030	     46.00713301	    -18.92262840	     -0.65872316	     60.35285398	     89.99589488
      2.98333330	    -31.34174066	      2.45441582	     -1.48252859	      0.66744589	      0.61269987	     -0.01365956	     97.38376223	     -4.86981629	     11.84600687	    104.42882897	      1.82262690	     33.78200082	    -17.17767246	     -7.49999987	     97.95375921	     -9.62998070	      5.90274509	    103.80826648	      1.81179604	     34.32894453	    -11.45756627	     -7.49999987	    -42.87988715	     -7.65733754	     -0.01775190	     42.40436918	    -21.95920161	     -5.18587516	     63.61155237	     90.21191248	     47.01148100	    -19.97230624	      0.17531375	     57.20903111	     88.61086026
      3.00000000	    -32.04664909	      2.26929964	     -1.25301493	      0.66775775	      0.61391763	     -0.00748357	     97.95790258	     -4.29680091	     11.79146562	    104.37593124	      1.82170366	     33.91346151	    -17.49016268	     -7.49999987	     98.39568361	     -9.53531647	      6.02074890	    103.43070576	      1.80520636	     34.40696665	    -11.65003572	     -7.49999987	    -43.39032128	     -7.55098966	     -0.09172468	     41.87538511	    -22.73083253	     -5.49595618	     63.35834059	     90.13298933	     46.71674898	    -21.39074099	     -0.24133662	     56.31115783	     88.45059314
      3.01666670	    -33.37813804	      1.99068349	     -0.94660420	      0.66227772	      0.61970629	     -0.01156099	     98.63883119	     -4.02810983	     11.54109750	    103.31921885	      1.80326055	     33.25366294	    -18.33391534	     -7.49999987	     99.20602807	     -9.10699566	      6.11445949	    102.37265015	      1.78673981	     33.48213815	    -12.64242399	     -7.49999987	    -42.51459225	     -6.78372062	     -0.57414028	     42.69875898	    -23.04040650	     -5.78824114	     63.44618890	     89.94088675	     47.00784634	    -22.81311594	     -0.04031979	     53.36730929	     87.79800450
      3.03333330	    -33.82576010	      1.78281364	     -0.64195456	      0.66371144	      0.62631928	     -0.00624178	     98.34322604	     -3.65720986	     11.32274939	    102.19909938	      1.78371078	     32.90151472	    -18.72215552	     -7.49999987	     99.01040200	     -8.99307738	      6.06821005	    101.14842387	      1.76537303	     32.50985311	    -13.42586360	     -7.49999987	    -42.34814404	     -6.84826366	     -0.03549061	     42.87380005	    -24.30983117	     -6.18214991	     63.46013713	     89.11335682	     48.88492199	    -24.39643480	      3.11710974	     52.09775067	     78.67881803
      3.05000000	    -34.48001041	      1.60408294	     -0.21920941	      0.66619420	      0.63801565	     -0.01327264	     97.78707924	     -3.87937499	     11.15494450	    100.33299101	      1.75114104	     32.25258693	    -18.98771775	     -7.49999987	     98.48579370	     -8.43858347	      5.75012831	     99.23135395	      1.73191385	     31.10924616	    -14.35084596	     -7.49999987	    -41.95653470	     -6.41114498	      0.03252752	     42.91896606	    -25.73338759	     -5.64466490	     64.22060337	     88.18197989	     48.13432797	    -25.77064751	      2.67675320	     53.73960695	     77.88871130
      3.06666670	    -34.47115265	      1.43182383	     -0.02764784	      0.68077141	      0.65180626	     -0.01294408	     95.46019182	     -4.08417322	     10.92231771	     97.82393407	      1.70734974	     32.05281781	    -19.06695246	     -7.49999987	     96.13474599	     -8.00725041	      5.47321455	     96.61747198	      1.68629300	     30.18339910	    -14.54791226	     -7.49999987	    -42.16122063	     -5.87663415	     -0.73547298	     43.05118493	    -26.19392663	     -3.96057262	     64.29950214	     88.40079766	     45.28434662	    -27.60778772	      0.02425241	     55.62266339	     76.92490165
      3.08333330	    -34.36896497	      1.38014898	      0.15371412	      0.68881389	      0.65999919	     -0.01625479	     93.14388593	     -4.32355174	     10.94612915	     95.72211933	      1.67066615	     31.84513029	    -18.82085714	     -7.49999987	     93.59444930	     -7.63147912	      5.11940987	     94.20815747	      1.64424253	     29.75625916	    -14.19340773	     -7.49999987	    -40.52491746	     -5.61493072	     -0.33174955	     41.79435282	    -27.19749219	     -4.08796710	     64.08359314	     88.14672950	     43.65682741	    -28.67737567	     -0.11155484	     55.40929155	     76.78183378
      3.10000000	    -33.05069980	      1.41102341	      0.67509797	      0.69597258	      0.66854455	     -0.01342535	     89.71247207	     -4.72570272	     11.12054100	     94.12239535	      1.64274570	     31.44413725	    -19.92333680	     -7.49999987	     90.03731494	     -6.95718210	      4.87595701	     92.18284762	      1.60889420	     29.21663013	    -14.73019674	     -7.49999987	    -39.84038369	     -5.34499866	     -0.29790055	     40.83102802	    -28.69896246	     -3.55189259	     64.78870424	     88.13493666	     42.19278790	    -30.70504275	     -0.08994234	     56.42468701	     76.76819078
      3.11666670	    -32.23738481	      1.39848055	      1.33791725	      0.69161233	      0.68354131	     -0.01649421	     87.00009604	     -5.39985129	     10.92944118	     92.08227483	      1.60713888	     30.77225019	    -20.41863004	     -7.49999987	     87.47242917	     -6.13135972	      4.69657662	     90.01570362	      1.57107041	     28.41702732	    -15.15803656	     -7.49999987	    -38.38409323	     -4.68764269	     -0.42497312	     39.41490758	    -30.31413395	     -3.29081274	     65.10504660	     87.21000346	     39.96218414	    -32.43060627	     -0.64411352	     56.78802475	     76.21174734
      3.13333330	    -31.55437063	      1.37102322	      1.63125359	      0.68523246	      0.70525713	     -0.02004879	     84.24402591	     -6.13710305	     10.22139537	     88.77602096	      1.54943386	     30.22459783	    -19.76235613	     -7.49999987	     85.02447750	     -5.72830787	      4.31391904	     87.19714958	      1.52187736	     27.52343109	    -14.78360770	     -7.49999987	    -36.86712394	     -4.14613326	     -0.14426529	     38.21664109	    -31.92217563	     -3.56105099	     64.96994179	     85.61998053	     38.07425880	    -33.76540407	     -0.95747163	     56.83762170	     75.27147323
      3.15000000	    -30.06918334	      1.06719760	      2.37539895	      0.69331546	      0.71986057	     -0.01860198	     80.20815594	     -7.40272444	      8.89440224	     85.36786934	      1.48995040	     29.28242045	    -19.96961094	     -7.49999987	     81.60926861	     -4.73742756	      4.59074164	     84.14464809	      1.46860116	     24.56618570	    -16.71604142	     -7.49999987	    -35.29829579	     -3.21422199	     -0.00007452	     36.25815493	    -33.76658766	     -2.37541111	     64.62653057	     86.14061973	     34.55386058	    -34.54139693	     -2.11418450	     54.74671604	     75.52652584
